<svg width="480" height="211" viewBox="0 0 480 211" fill="none" xmlns="http://www.w3.org/2000/svg">
<path d="M204.09 4.7822L97.5183 22.111C86.8168 23.8511 79.4191 34.2939 80.9951 45.4356L100.256 181.609C101.832 192.751 111.785 200.373 122.486 198.633L229.058 181.304C239.759 179.564 247.157 169.121 245.581 157.979L226.32 21.8054C224.744 10.6637 214.791 3.04212 204.09 4.7822Z" fill="#2E8B57"/>
<path opacity="0.9" d="M198.562 18.4754L106.672 33.4365C98.659 34.7412 93.1187 42.5821 94.2975 50.9496L111.373 172.156C112.552 180.524 120.003 186.249 128.016 184.945L219.906 169.983C227.92 168.679 233.46 160.838 232.281 152.47L215.206 31.264C214.027 22.8964 206.575 17.1708 198.562 18.4754Z" fill="white"/>
<path d="M120.237 52.7012L198.14 45.0142" stroke="#2E8B57" stroke-width="5" stroke-linecap="round"/>
<path d="M123.312 92.3379L175.247 87.2133" stroke="#2E8B57" stroke-width="5" stroke-linecap="round"/>
<path d="M126.387 131.979L191.305 125.573" stroke="#2E8B57" stroke-width="5" stroke-linecap="round"/>
<path d="M57.8773 110.582L9.02589 118.459ZM29.8369 89.5009L37.0664 139.54Z" fill="black"/>
<path d="M57.8773 110.582L9.02589 118.459M29.8369 89.5009L37.0664 139.54" stroke="#2E8B57" stroke-width="5" stroke-linecap="round"/>
<path d="M292.666 114.82V92.1003H302.618C304.282 92.1003 305.722 92.3776 306.938 92.9323C308.154 93.487 309.093 94.2763 309.754 95.3003C310.437 96.303 310.778 97.4976 310.778 98.8843C310.778 100.271 310.405 101.444 309.658 102.404C308.933 103.364 307.973 104.026 306.778 104.388C309.018 104.708 310.234 106.01 310.426 108.292L311.002 114.82H306.042L305.626 109.06C305.562 108.186 305.285 107.546 304.794 107.14C304.325 106.714 303.514 106.5 302.362 106.5H297.53V114.82H292.666ZM297.53 102.436H302.074C303.247 102.436 304.154 102.17 304.794 101.636C305.455 101.082 305.786 100.303 305.786 99.3003C305.786 98.2763 305.455 97.5083 304.794 96.9963C304.133 96.463 303.173 96.1963 301.914 96.1963H297.53V102.436ZM321.872 115.204C320.123 115.204 318.597 114.831 317.296 114.084C316.016 113.338 315.013 112.303 314.288 110.98C313.584 109.636 313.232 108.058 313.232 106.244C313.232 104.452 313.584 102.884 314.288 101.54C314.992 100.196 315.984 99.151 317.264 98.4043C318.565 97.6576 320.091 97.2843 321.84 97.2843C323.547 97.2843 325.029 97.6576 326.288 98.4043C327.547 99.151 328.517 100.218 329.2 101.604C329.904 102.991 330.256 104.644 330.256 106.564V107.524H318.192C318.256 108.89 318.619 109.903 319.28 110.564C319.963 111.226 320.859 111.556 321.968 111.556C323.632 111.556 324.699 110.863 325.168 109.476L330 109.764C329.531 111.471 328.571 112.804 327.12 113.764C325.691 114.724 323.941 115.204 321.872 115.204ZM318.192 104.58H325.328C325.264 103.322 324.912 102.383 324.272 101.764C323.653 101.146 322.843 100.836 321.84 100.836C320.837 100.836 320.005 101.167 319.344 101.828C318.704 102.468 318.32 103.386 318.192 104.58ZM340.903 120.004C338.449 120.004 336.583 119.556 335.303 118.66C334.023 117.764 333.191 116.612 332.807 115.204L337.735 114.852C337.905 115.407 338.225 115.844 338.695 116.164C339.164 116.484 339.9 116.644 340.903 116.644C342.033 116.644 342.908 116.367 343.527 115.812C344.145 115.279 344.455 114.415 344.455 113.22V111.396C344.049 112.186 343.399 112.826 342.503 113.316C341.607 113.786 340.604 114.02 339.495 114.02C338.087 114.02 336.839 113.679 335.751 112.996C334.663 112.314 333.809 111.343 333.191 110.084C332.593 108.826 332.295 107.354 332.295 105.668C332.295 104.026 332.593 102.575 333.191 101.316C333.809 100.058 334.652 99.0763 335.719 98.3723C336.807 97.647 338.044 97.2843 339.431 97.2843C340.689 97.2843 341.745 97.5616 342.599 98.1163C343.473 98.671 344.135 99.407 344.583 100.324V97.6683H349.287V113.124C349.287 114.66 348.935 115.94 348.231 116.964C347.527 117.988 346.545 118.746 345.287 119.236C344.028 119.748 342.567 120.004 340.903 120.004ZM340.871 110.468C341.959 110.468 342.833 110.052 343.495 109.22C344.156 108.367 344.487 107.172 344.487 105.636C344.508 104.143 344.188 102.97 343.527 102.116C342.865 101.242 341.98 100.804 340.871 100.804C339.719 100.804 338.823 101.242 338.183 102.116C337.543 102.991 337.223 104.164 337.223 105.636C337.223 107.108 337.553 108.282 338.215 109.156C338.876 110.031 339.761 110.468 340.871 110.468ZM359.136 115.204C357.365 115.204 355.979 114.639 354.976 113.508C353.995 112.356 353.504 110.756 353.504 108.708V97.6683H358.304V107.588C358.304 108.911 358.507 109.882 358.912 110.5C359.317 111.098 359.957 111.396 360.832 111.396C361.813 111.396 362.571 111.066 363.104 110.404C363.659 109.722 363.936 108.708 363.936 107.364V97.6683H368.736V114.82H364.352L364.288 112.036C363.413 114.148 361.696 115.204 359.136 115.204ZM377.421 114.82C376.013 114.82 374.915 114.479 374.125 113.796C373.336 113.092 372.941 111.94 372.941 110.34V92.1003H377.741V109.828C377.741 110.34 377.859 110.703 378.093 110.916C378.328 111.13 378.669 111.236 379.117 111.236H380.269V114.82H377.421ZM387.998 115.204C386.206 115.204 384.755 114.799 383.646 113.988C382.537 113.156 381.982 112.004 381.982 110.532C381.982 109.018 382.451 107.855 383.39 107.044C384.35 106.212 385.758 105.604 387.614 105.22L393.15 104.132C393.15 101.892 392.179 100.772 390.238 100.772C388.467 100.772 387.422 101.594 387.102 103.236L382.27 103.012C382.59 101.135 383.433 99.7163 384.798 98.7563C386.185 97.775 387.998 97.2843 390.238 97.2843C392.798 97.2843 394.718 97.903 395.998 99.1403C397.299 100.356 397.95 102.127 397.95 104.452V110.308C397.95 110.799 398.025 111.13 398.174 111.3C398.345 111.45 398.59 111.524 398.91 111.524H399.39V114.82C399.241 114.863 398.995 114.906 398.654 114.948C398.334 114.991 398.014 115.012 397.694 115.012C396.798 115.012 395.998 114.82 395.294 114.436C394.59 114.031 394.131 113.284 393.918 112.196C393.491 113.114 392.766 113.85 391.742 114.404C390.718 114.938 389.47 115.204 387.998 115.204ZM389.15 111.908C390.345 111.908 391.305 111.556 392.03 110.852C392.777 110.148 393.15 109.188 393.15 107.972V107.14L389.246 107.972C387.689 108.271 386.91 108.975 386.91 110.084C386.91 111.3 387.657 111.908 389.15 111.908ZM407.687 114.82L415.879 92.1003H421.639L429.831 114.82H424.775L423.111 109.988H414.375L412.711 114.82H407.687ZM415.751 105.988H421.767L418.759 97.2203L415.751 105.988ZM447.818 119.62H443.018V112.42C442.549 113.295 441.877 113.978 441.002 114.468C440.127 114.959 439.157 115.204 438.09 115.204C436.49 115.204 435.146 114.81 434.058 114.02C432.991 113.231 432.181 112.164 431.626 110.82C431.093 109.455 430.826 107.93 430.826 106.244C430.826 104.559 431.093 103.044 431.626 101.7C432.159 100.335 432.959 99.2576 434.026 98.4683C435.114 97.679 436.458 97.2843 438.058 97.2843C439.189 97.2843 440.191 97.5403 441.066 98.0523C441.941 98.543 442.634 99.2683 443.146 100.228L443.21 97.6683H447.818V119.62ZM439.402 111.524C440.554 111.524 441.439 111.076 442.058 110.18C442.698 109.284 443.018 107.972 443.018 106.244C443.018 104.516 442.698 103.204 442.058 102.308C441.418 101.412 440.533 100.964 439.402 100.964C438.271 100.964 437.375 101.434 436.714 102.372C436.074 103.311 435.754 104.602 435.754 106.244C435.754 107.887 436.074 109.178 436.714 110.116C437.375 111.055 438.271 111.524 439.402 111.524ZM457.667 115.204C455.896 115.204 454.51 114.639 453.507 113.508C452.526 112.356 452.035 110.756 452.035 108.708V97.6683H456.835V107.588C456.835 108.911 457.038 109.882 457.443 110.5C457.848 111.098 458.488 111.396 459.363 111.396C460.344 111.396 461.102 111.066 461.635 110.404C462.19 109.722 462.467 108.708 462.467 107.364V97.6683H467.267V114.82H462.883L462.819 112.036C461.944 114.148 460.227 115.204 457.667 115.204ZM471.223 114.82V97.6683H476.023V114.82H471.223ZM471.127 95.5563V91.7163H476.087V95.5563H471.127Z" fill="#2E8B57"/>
</svg>
