<svg width="350" height="350" viewBox="0 0 350 350" fill="none" xmlns="http://www.w3.org/2000/svg">
<path d="M252.447 78.8198L147.839 94.5468C137.335 96.126 130.149 106.128 131.789 116.887L151.836 248.385C153.476 259.144 163.321 266.585 173.825 265.006L278.433 249.279C288.938 247.7 296.124 237.698 294.483 226.939L274.437 95.4414C272.797 84.6823 262.951 77.2406 252.447 78.8198Z" fill="#2E8B57"/>
<path opacity="0.9" d="M247.125 91.972L156.928 105.551C149.063 106.735 143.681 114.246 144.909 122.326L162.684 239.369C163.912 247.449 171.283 253.039 179.148 251.855L269.345 238.276C277.21 237.092 282.592 229.582 281.365 221.502L263.589 104.458C262.362 96.3782 254.991 90.7878 247.125 91.972Z" fill="white"/>
<path d="M170.42 124.256L246.928 117.562" stroke="#2E8B57" stroke-width="3" stroke-linecap="round"/>
<path d="M173.767 162.51L224.772 158.047" stroke="#2E8B57" stroke-width="3" stroke-linecap="round"/>
<path d="M177.113 200.764L240.87 195.186" stroke="#2E8B57" stroke-width="3" stroke-linecap="round"/>
<path d="M109.599 179.496L61.6475 186.642ZM81.8656 158.908L89.3812 207.23Z" fill="black"/>
<path d="M109.599 179.496L61.6475 186.642M81.8656 158.908L89.3812 207.23" stroke="#2E8B57" stroke-width="6" stroke-linecap="round"/>
</svg>
