<svg width="350" height="350" viewBox="0 0 350 350" fill="none" xmlns="http://www.w3.org/2000/svg">
<path d="M252.447 51.8198L147.839 67.5468C137.335 69.126 130.149 79.1282 131.789 89.8873L151.836 221.385C153.476 232.144 163.321 239.585 173.825 238.006L278.433 222.279C288.938 220.7 296.124 210.698 294.483 199.939L274.437 68.4414C272.797 57.6823 262.951 50.2406 252.447 51.8198Z" fill="#2E8B57"/>
<path opacity="0.9" d="M247.125 64.972L156.928 78.5512C149.063 79.7354 143.681 87.2456 144.909 95.3257L162.684 212.369C163.912 220.449 171.283 226.039 179.148 224.855L269.345 211.276C277.21 210.092 282.592 202.582 281.365 194.502L263.589 77.4583C262.362 69.3782 254.991 63.7878 247.125 64.972Z" fill="white"/>
<path d="M170.42 97.2559L246.928 90.5623" stroke="#2E8B57" stroke-width="3" stroke-linecap="round"/>
<path d="M173.767 135.51L224.772 131.047" stroke="#2E8B57" stroke-width="3" stroke-linecap="round"/>
<path d="M177.113 173.764L240.87 168.186" stroke="#2E8B57" stroke-width="3" stroke-linecap="round"/>
<path d="M109.599 152.496L61.6475 159.642ZM81.8656 131.908L89.3812 180.23Z" fill="black"/>
<path d="M109.599 152.496L61.6475 159.642M81.8656 131.908L89.3812 180.23" stroke="#2E8B57" stroke-width="6" stroke-linecap="round"/>
<path d="M78.5985 292.113V269.393H88.5505C90.2145 269.393 91.6545 269.671 92.8705 270.225C94.0865 270.78 95.0251 271.569 95.6865 272.593C96.3691 273.596 96.7105 274.791 96.7105 276.177C96.7105 277.564 96.3371 278.737 95.5905 279.697C94.8651 280.657 93.9051 281.319 92.7105 281.681C94.9505 282.001 96.1665 283.303 96.3585 285.585L96.9345 292.113H91.9745L91.5585 286.353C91.4945 285.479 91.2171 284.839 90.7265 284.433C90.2571 284.007 89.4465 283.793 88.2945 283.793H83.4625V292.113H78.5985ZM83.4625 279.729H88.0065C89.1798 279.729 90.0865 279.463 90.7265 278.929C91.3878 278.375 91.7185 277.596 91.7185 276.593C91.7185 275.569 91.3878 274.801 90.7265 274.289C90.0651 273.756 89.1051 273.489 87.8465 273.489H83.4625V279.729ZM107.804 292.497C106.055 292.497 104.53 292.124 103.228 291.377C101.948 290.631 100.946 289.596 100.22 288.273C99.5165 286.929 99.1645 285.351 99.1645 283.537C99.1645 281.745 99.5165 280.177 100.22 278.833C100.924 277.489 101.916 276.444 103.196 275.697C104.498 274.951 106.023 274.577 107.772 274.577C109.479 274.577 110.962 274.951 112.22 275.697C113.479 276.444 114.45 277.511 115.132 278.897C115.836 280.284 116.188 281.937 116.188 283.857V284.817H104.124C104.188 286.183 104.551 287.196 105.212 287.857C105.895 288.519 106.791 288.849 107.9 288.849C109.564 288.849 110.631 288.156 111.1 286.769L115.932 287.057C115.463 288.764 114.503 290.097 113.052 291.057C111.623 292.017 109.874 292.497 107.804 292.497ZM104.124 281.873H111.26C111.196 280.615 110.844 279.676 110.204 279.057C109.586 278.439 108.775 278.129 107.772 278.129C106.77 278.129 105.938 278.46 105.276 279.121C104.636 279.761 104.252 280.679 104.124 281.873ZM126.835 297.297C124.382 297.297 122.515 296.849 121.235 295.953C119.955 295.057 119.123 293.905 118.739 292.497L123.667 292.145C123.838 292.7 124.158 293.137 124.627 293.457C125.096 293.777 125.832 293.937 126.835 293.937C127.966 293.937 128.84 293.66 129.459 293.105C130.078 292.572 130.387 291.708 130.387 290.513V288.689C129.982 289.479 129.331 290.119 128.435 290.609C127.539 291.079 126.536 291.313 125.427 291.313C124.019 291.313 122.771 290.972 121.683 290.289C120.595 289.607 119.742 288.636 119.123 287.377C118.526 286.119 118.227 284.647 118.227 282.961C118.227 281.319 118.526 279.868 119.123 278.609C119.742 277.351 120.584 276.369 121.651 275.665C122.739 274.94 123.976 274.577 125.363 274.577C126.622 274.577 127.678 274.855 128.531 275.409C129.406 275.964 130.067 276.7 130.515 277.617V274.961H135.219V290.417C135.219 291.953 134.867 293.233 134.163 294.257C133.459 295.281 132.478 296.039 131.219 296.529C129.96 297.041 128.499 297.297 126.835 297.297ZM126.803 287.761C127.891 287.761 128.766 287.345 129.427 286.513C130.088 285.66 130.419 284.465 130.419 282.929C130.44 281.436 130.12 280.263 129.459 279.409C128.798 278.535 127.912 278.097 126.803 278.097C125.651 278.097 124.755 278.535 124.115 279.409C123.475 280.284 123.155 281.457 123.155 282.929C123.155 284.401 123.486 285.575 124.147 286.449C124.808 287.324 125.694 287.761 126.803 287.761ZM145.068 292.497C143.298 292.497 141.911 291.932 140.908 290.801C139.927 289.649 139.436 288.049 139.436 286.001V274.961H144.236V284.881C144.236 286.204 144.439 287.175 144.844 287.793C145.25 288.391 145.89 288.689 146.764 288.689C147.746 288.689 148.503 288.359 149.036 287.697C149.591 287.015 149.868 286.001 149.868 284.657V274.961H154.668V292.113H150.284L150.22 289.329C149.346 291.441 147.628 292.497 145.068 292.497ZM163.354 292.113C161.946 292.113 160.847 291.772 160.058 291.089C159.268 290.385 158.874 289.233 158.874 287.633V269.393H163.674V287.121C163.674 287.633 163.791 287.996 164.026 288.209C164.26 288.423 164.602 288.529 165.05 288.529H166.202V292.113H163.354ZM173.93 292.497C172.138 292.497 170.688 292.092 169.578 291.281C168.469 290.449 167.914 289.297 167.914 287.825C167.914 286.311 168.384 285.148 169.322 284.337C170.282 283.505 171.69 282.897 173.546 282.513L179.082 281.425C179.082 279.185 178.112 278.065 176.17 278.065C174.4 278.065 173.354 278.887 173.034 280.529L168.202 280.305C168.522 278.428 169.365 277.009 170.73 276.049C172.117 275.068 173.93 274.577 176.17 274.577C178.73 274.577 180.65 275.196 181.93 276.433C183.232 277.649 183.882 279.42 183.882 281.745V287.601C183.882 288.092 183.957 288.423 184.106 288.593C184.277 288.743 184.522 288.817 184.842 288.817H185.322V292.113C185.173 292.156 184.928 292.199 184.586 292.241C184.266 292.284 183.946 292.305 183.626 292.305C182.73 292.305 181.93 292.113 181.226 291.729C180.522 291.324 180.064 290.577 179.85 289.489C179.424 290.407 178.698 291.143 177.674 291.697C176.65 292.231 175.402 292.497 173.93 292.497ZM175.082 289.201C176.277 289.201 177.237 288.849 177.962 288.145C178.709 287.441 179.082 286.481 179.082 285.265V284.433L175.178 285.265C173.621 285.564 172.842 286.268 172.842 287.377C172.842 288.593 173.589 289.201 175.082 289.201ZM193.62 292.113L201.812 269.393H207.572L215.764 292.113H210.708L209.044 287.281H200.308L198.644 292.113H193.62ZM201.684 283.281H207.7L204.692 274.513L201.684 283.281ZM233.75 296.913H228.95V289.713C228.481 290.588 227.809 291.271 226.934 291.761C226.06 292.252 225.089 292.497 224.022 292.497C222.422 292.497 221.078 292.103 219.99 291.313C218.924 290.524 218.113 289.457 217.558 288.113C217.025 286.748 216.758 285.223 216.758 283.537C216.758 281.852 217.025 280.337 217.558 278.993C218.092 277.628 218.892 276.551 219.958 275.761C221.046 274.972 222.39 274.577 223.99 274.577C225.121 274.577 226.124 274.833 226.998 275.345C227.873 275.836 228.566 276.561 229.078 277.521L229.142 274.961H233.75V296.913ZM225.334 288.817C226.486 288.817 227.372 288.369 227.99 287.473C228.63 286.577 228.95 285.265 228.95 283.537C228.95 281.809 228.63 280.497 227.99 279.601C227.35 278.705 226.465 278.257 225.334 278.257C224.204 278.257 223.308 278.727 222.646 279.665C222.006 280.604 221.686 281.895 221.686 283.537C221.686 285.18 222.006 286.471 222.646 287.409C223.308 288.348 224.204 288.817 225.334 288.817ZM243.599 292.497C241.829 292.497 240.442 291.932 239.439 290.801C238.458 289.649 237.967 288.049 237.967 286.001V274.961H242.767V284.881C242.767 286.204 242.97 287.175 243.375 287.793C243.781 288.391 244.421 288.689 245.295 288.689C246.277 288.689 247.034 288.359 247.567 287.697C248.122 287.015 248.399 286.001 248.399 284.657V274.961H253.199V292.113H248.815L248.751 289.329C247.877 291.441 246.159 292.497 243.599 292.497ZM257.155 292.113V274.961H261.955V292.113H257.155ZM257.059 272.849V269.009H262.019V272.849H257.059Z" fill="#1B5E3F"/>
</svg>
