<svg width="250" height="250" viewBox="0 0 250 250" fill="none" xmlns="http://www.w3.org/2000/svg">
<path d="M200.447 28.8198L95.839 44.5468C85.3347 46.126 78.149 56.1282 79.7892 66.8873L99.8357 198.385C101.476 209.144 111.321 216.585 121.825 215.006L226.433 199.279C236.938 197.7 244.124 187.698 242.483 176.939L222.437 45.4414C220.797 34.6823 210.951 27.2406 200.447 28.8198Z" fill="#2E8B57"/>
<path opacity="0.9" d="M195.125 41.972L104.928 55.5512C97.0627 56.7354 91.6813 64.2456 92.9085 72.3257L110.684 189.369C111.912 197.449 119.283 203.039 127.148 201.855L217.345 188.276C225.21 187.092 230.592 179.582 229.365 171.502L211.589 54.4583C210.362 46.3782 202.991 40.7878 195.125 41.972Z" fill="white"/>
<path d="M118.42 74.2559L194.928 67.5623" stroke="#2E8B57" stroke-width="5" stroke-linecap="round"/>
<path d="M121.767 112.51L172.772 108.047" stroke="#2E8B57" stroke-width="5" stroke-linecap="round"/>
<path d="M125.113 150.764L188.87 145.186" stroke="#2E8B57" stroke-width="5" stroke-linecap="round"/>
<path d="M57.5994 129.496L9.64746 136.642ZM29.8656 108.908L37.3812 157.23Z" fill="black"/>
<path d="M57.5994 129.496L9.64746 136.642M29.8656 108.908L37.3812 157.23" stroke="#2E8B57" stroke-width="8" stroke-linecap="round"/>
</svg>
